<?xml version="1.0" standalone="no"?><!DOCTYPE svg PUBLIC "-//W3C//DTD SVG 1.1//EN" "http://www.w3.org/Graphics/SVG/1.1/DTD/svg11.dtd"><svg t="1575899109645" class="icon" viewBox="0 0 1026 1024" version="1.1" xmlns="http://www.w3.org/2000/svg" p-id="1715" xmlns:xlink="http://www.w3.org/1999/xlink" width="200.390625" height="200"><defs><style type="text/css"></style></defs><path d="M2.798633 0.499756h1023.500245v1023.500244H2.798633z" fill="#9FFFF7" p-id="1716"></path><path d="M817.001074 487.461981c0-51.175012-34.982918-94.154026-82.359786-106.248121-11.094583-48.876135-54.773255-85.25837-107.04773-85.25837-36.082382 0-68.066764 17.391508-88.156955 44.27838-19.990239-26.886872-51.974622-44.27838-88.156954-44.27838-54.173548 0-99.151586 39.180869-108.147194 90.755686-39.080918 16.791801-66.367594 55.672816-66.367594 100.850757 0 35.682577 16.991703 67.267155 43.278868 87.357345-6.196974 19.890288-9.595315 39.880527-9.595315 57.771791 0 70.865398 53.973646 128.937042 119.941435 128.937042h235.984773c65.967789 0 119.941435-57.971694 119.941435-128.937042 0-18.490971-3.698194-39.180869-10.195022-59.770815 24.987799-20.290093 40.880039-51.075061 40.880039-85.458273z" fill="#4DECE1" p-id="1717"></path><path d="M752.132748 452.878868c0-51.175012-34.982918-94.154026-82.359786-106.248121-11.094583-48.876135-54.773255-85.25837-107.04773-85.25837-36.082382 0-68.066764 17.391508-88.156955 44.278379-19.990239-26.886872-51.974622-44.27838-88.156954-44.278379-54.173548 0-99.151586 39.180869-108.147194 90.755685C239.183211 368.919863 211.896535 407.800878 211.896535 452.978819c0 35.682577 16.991703 67.267155 43.278868 87.357345-6.196974 19.890288-9.595315 39.880527-9.595315 57.771791 0 70.865398 53.973646 128.937042 119.941435 128.937043H601.706198c65.967789 0 119.941435-57.971694 119.941435-128.937043 0-18.490971-3.698194-39.180869-10.195022-59.770815 24.787897-20.290093 40.680137-51.075061 40.680137-85.458272z" fill="#FCFFFB" p-id="1718"></path><path d="M601.706198 734.341435H365.721425c-70.265691 0-127.437775-61.170132-127.437774-136.433382 0-16.791801 2.898585-35.782528 8.3959-55.073109-26.886872-22.389068-42.179405-54.873206-42.179405-90.056027 0-45.577745 26.287164-86.757638 67.267155-106.048219 11.294485-54.173548 58.971205-93.054563 114.743973-93.054563 33.683553 0 65.967789 14.792777 88.156954 39.880527 22.089214-25.187701 54.37345-39.880527 88.156955-39.880527 26.686969 0 52.874183 9.19551 73.664031 25.987311 19.290581 15.592387 33.183797 36.981942 39.580674 60.770327C725.445778 355.22655 759.629087 400.804295 759.629087 452.878868c0 33.783504-14.392972 65.567984-39.580673 87.857101 5.997072 20.09019 9.095559 39.780576 9.095559 57.272035 0 75.163299-57.172084 136.333431-127.437775 136.333431zM386.511274 268.768765c-49.775695 0-92.155002 35.582626-100.750805 84.558712l-0.699659 3.998048-3.698194 1.599219c-37.58165 16.192094-61.86979 53.074085-61.86979 93.954124 0 32.184285 14.692826 61.86979 40.380283 81.360273l4.19795 3.198438-1.499268 4.99756c-5.997072 19.590434-9.19551 38.781064-9.19551 55.572865 0 32.384187 11.794241 62.869302 33.183797 85.958028 21.289605 22.888824 49.375891 35.482674 79.161347 35.482675H601.706198c29.785456 0 57.871742-12.593851 79.161347-35.482675 21.389556-22.988775 33.183797-53.573841 33.183797-85.958028 0-17.391508-3.398341-37.281796-9.895168-57.571889l-1.599219-4.897608 3.998047-3.198439c24.088238-19.490483 37.881503-48.47633 37.881504-79.4612 0-46.677208-31.584578-87.457296-76.662567-99.051635l-4.397853-1.099463-0.999512-4.497804c-5.097511-22.189165-17.691362-42.379307-35.482675-56.772279-18.091166-14.592875-40.880039-22.688921-64.168667-22.688922-32.684041 0-62.569449 15.092631-82.059932 41.279844l-5.997072 8.096047-5.997071-8.096047c-19.490483-26.287164-49.475842-41.279844-82.159883-41.279844z" fill="#6B3437" p-id="1719"></path><path d="M381.913519 353.827233m-63.069205 0a63.069204 63.069204 0 1 0 126.138409 0 63.069204 63.069204 0 1 0-126.138409 0Z" fill="#FEA7C1" p-id="1720"></path><path d="M559.526794 353.827233m-63.069205 0a63.069204 63.069204 0 1 0 126.138409 0 63.069204 63.069204 0 1 0-126.138409 0Z" fill="#FEA7C1" p-id="1721"></path><path d="M656.379502 455.777452m-55.17306 0a55.17306 55.17306 0 1 0 110.34612 0 55.17306 55.17306 0 1 0-110.34612 0Z" fill="#FEA7C1" p-id="1722"></path><path d="M287.859444 455.777452m-55.17306 0a55.17306 55.17306 0 1 0 110.34612 0 55.17306 55.17306 0 1 0-110.34612 0Z" fill="#FEA7C1" p-id="1723"></path><path d="M651.481894 614.799805c-12.993655 35.482674-92.854661 37.181845-161.121328 38.281308-68.266667 1.099463-143.729819 2.598731-157.523084-30.88492-17.691362-42.479258 62.169644-148.727379 158.322694-149.62694 94.253978-0.999512 176.213958 98.751781 160.321718 142.230552z" fill="#FEA7C1" p-id="1724"></path><path d="M507.352269 474.268424c77.961933 19.690386 136.433382 103.749341 122.640118 141.730795-7.096535 19.490483-33.883455 30.08531-67.866862 35.782528 44.978038-3.398341 83.5592-11.994143 92.155002-35.782528 14.992679-41.379795-58.571401-133.934602-146.928258-141.730795z" fill="#F27A97" p-id="1725"></path><path d="M697.859248 540.735969s33.483651 70.965349-7.996095 127.437774c-40.780088 55.572865-99.251537 48.776184-99.251538 48.776184S695.160566 698.259053 697.859248 540.735969zM714.351196 390.709224s30.884919 25.487555 27.286676 70.865398c-3.598243 45.377843-34.683065 59.271059-34.683065 59.271059s51.574817-51.274963 7.396389-130.136457z" fill="#F1E8E3" p-id="1726"></path><path d="M421.194339 509.251342c-1.299366 0-2.598731-0.699658-3.198439-1.999024-0.899561-1.69917-0.099951-3.898097 1.59922-4.697706 5.197462-2.598731 10.694778-4.697706 16.292044-6.296925 1.899073-0.499756 3.798145 0.499756 4.397853 2.398828s-0.499756 3.798145-2.398829 4.397853c-5.197462 1.499268-10.294973 3.498292-15.09263 5.897121-0.599707 0.199902-1.099463 0.299854-1.599219 0.299853zM372.718009 556.828111c-0.399805 0-0.899561-0.099951-1.299366-0.299853-1.799122-0.699658-2.698682-2.798633-1.999024-4.597755 0.399805-0.899561 9.395412-22.888824 36.282284-40.380283 1.599219-1.099463 3.798145-0.599707 4.897609 0.999512 1.099463 1.599219 0.599707 3.798145-0.999512 4.897608-12.993655 8.3959-21.389556 18.091166-26.187213 24.587994-5.197462 7.196486-7.296437 12.393948-7.396389 12.393949-0.499756 1.499268-1.899073 2.398829-3.298389 2.398828zM249.278282 437.486384c-0.399805 0-0.79961-0.099951-1.199414-0.199903-1.999024-0.699658-3.198438-2.898585-2.49878-4.897608 0.199902-0.699658 5.397365-16.292045 27.386627-23.38858 2.098975-0.699658 4.297901 0.499756 4.897609 2.49878 0.699658 2.098975-0.499756 4.297901-2.49878 4.897608-17.891264 5.697218-22.189165 17.791313-22.289116 18.291069-0.599707 1.799122-2.198926 2.798633-3.798146 2.798634z" fill="#FFFFFF" p-id="1727"></path></svg>